<?xml version="1.0" encoding="utf-8"?>
<!-- Generator: Adobe Illustrator 21.0.0, SVG Export Plug-In . SVG Version: 6.00 Build 0)  -->
<svg version="1.1" id="Layer_1" xmlns="http://www.w3.org/2000/svg" xmlns:xlink="http://www.w3.org/1999/xlink" x="0px" y="0px"
	 viewBox="0 0 185 33" style="enable-background:new 0 0 185 33;" xml:space="preserve">
<style type="text/css">
	.st0{fill:none;stroke:#99CC34;stroke-width:3;stroke-linecap:round;stroke-linejoin:round;stroke-miterlimit:10;}
	.st1{fill:none;stroke:#ED1C24;stroke-width:3;stroke-linecap:round;stroke-linejoin:round;stroke-miterlimit:10;}
	.st2{fill:#FFFFFF;}
	.st3{fill:#D1EDDA;}
	.st4{fill:none;stroke:#30344D;stroke-width:2;stroke-linecap:round;stroke-linejoin:round;stroke-miterlimit:10;}
	.st5{fill:none;stroke:#323751;stroke-width:3;stroke-linecap:round;stroke-linejoin:round;stroke-miterlimit:10;}
	.st6{fill:none;stroke:#A6A8AB;}
	.st7{fill:none;stroke:#A6A8AB;stroke-width:0.65;}
	.st8{fill:none;stroke:#A6A8AB;stroke-width:0.75;}
	.st9{fill:none;stroke:#99CC34;stroke-width:2;}
	.st10{fill:#323751;}
	.st11{clip-path:url(#SVGID_2_);}
	.st12{opacity:0.42;}
	.st13{fill:#F4F0EE;}
	.st14{fill:none;stroke:#99CC34;stroke-width:1.39;}
	.st15{fill:none;stroke:#99CC34;stroke-width:1.042;}
	.st16{fill:none;stroke:#99CC34;stroke-width:1.39;stroke-linejoin:round;}
	.st17{fill:#99CC34;}
</style>
<g>
	<path class="st9" d="M159.6,4.9c-2.3-1.8-5.2-2.8-8.3-2.8c-7.8,0-14.1,6.6-14.1,14.6c0,8.1,6.3,14.6,14.1,14.6c3.1,0,6-1.1,8.3-2.8
		"/>
	<line class="st9" x1="164.6" y1="2" x2="164.6" y2="31.6"/>
	<line class="st9" x1="183.6" y1="2" x2="183.6" y2="31.6"/>
	<line class="st9" x1="164.1" y1="15.8" x2="184.1" y2="15.8"/>
	<path class="st10" d="M27,16.5c0,6.8-5.2,12.3-11.6,12.3C9,28.8,3.8,23.3,3.8,16.5S9,4.2,15.4,4.2C21.8,4.2,27,9.7,27,16.5
		 M30.7,16.5c0-8.3-6.8-15.1-15.1-15.1C7.2,1.4,0.5,8.2,0.5,16.5s6.8,15.1,15.1,15.1C23.9,31.6,30.7,24.8,30.7,16.5"/>
	<polygon class="st10" points="92,2.2 95.8,2.2 78.1,31.6 74.4,31.6 	"/>
	<polygon class="st10" points="78.1,2.2 74.4,2.2 92,31.6 95.8,31.6 	"/>
	<rect x="57" y="2.2" class="st10" width="15.2" height="3.3"/>
	<rect x="57.1" y="14.1" class="st10" width="14.4" height="3.3"/>
	<rect x="57" y="28.3" class="st10" width="15.2" height="3.3"/>
	<rect x="57" y="2.2" class="st10" width="3.3" height="29.4"/>
	<polygon class="st10" points="29.7,2.2 33.4,2.2 42.1,22.6 50.8,2.2 54.5,2.2 44,27 44,27 44,27 42.1,31.4 	"/>
	<line class="st9" x1="98" y1="3.1" x2="115.4" y2="3.1"/>
	<line class="st9" x1="106.7" y1="2.8" x2="106.7" y2="31.6"/>
	<line class="st9" x1="119.2" y1="3.1" x2="133.9" y2="3.1"/>
	<line class="st9" x1="119.5" y1="2.2" x2="119.5" y2="31.6"/>
	<line class="st9" x1="119.2" y1="15.8" x2="133.1" y2="15.8"/>
	<line class="st9" x1="119.2" y1="30.7" x2="133.9" y2="30.7"/>
</g>
</svg>
