<svg width="149" height="23" viewBox="0 0 149 23" fill="none" xmlns="http://www.w3.org/2000/svg">
<path d="M15.8001 2.3C15.8001 2.3 15.8001 1 14.5001 1H2.4001C2.4001 1 1.1001 1 1.1001 2.3V21.1C1.1001 21.1 1.1001 22.4 2.4001 22.4H14.5001C14.5001 22.4 15.8001 22.4 15.8001 21.1V2.3V2.3Z" stroke="#A6A8AB" stroke-width="0.929"/>
<path d="M1 4.60002H15.9M8.4 21.4C9.2 21.4 9.8 20.8 9.8 20C9.8 19.2 9.2 18.6 8.4 18.6C7.6 18.6 7 19.2 7 20C7 20.8 7.7 21.4 8.4 21.4ZM6.9 2.90002H9.9H6.9ZM1 17.7H15.9H1Z" stroke="#A6A8AB" stroke-width="0.604"/>
<path d="M27.5 9.20007V12.5001H30.6V13.3001H27.5V16.6001H26.6V13.3001H23.5V12.5001H26.6V9.20007H27.5Z" fill="#A6A8AB"/>
<path d="M34 15.7C34.3 15.7 34.6 15.7 35 15.7C35.7 15.6 36.4001 15.3 36.9001 14.8C37.5001 14.3 37.9001 13.5 38.1001 12.4C37.6001 13 36.9 13.4 36 13.4C34.4 13.4 33.3 12.2 33.3 10.6C33.3 8.90002 34.5001 7.40002 36.4001 7.40002C38.3001 7.40002 39.4001 8.90002 39.4001 11.2C39.4001 13.2 38.7 14.6 37.8 15.4C37.1 16.1 36.1001 16.5 35.2001 16.6C34.8001 16.7 34.4001 16.7 34.1001 16.7V15.7H34ZM34.4001 10.5C34.4001 11.6 35.1001 12.4 36.1001 12.4C36.9001 12.4 37.6001 12 37.9001 11.5C38.0001 11.4 38 11.2 38 11.1C38 9.50002 37.5001 8.30002 36.2001 8.30002C35.1001 8.30002 34.4001 9.20002 34.4001 10.5Z" fill="#A6A8AB"/>
<path d="M41.8 16.6V15.8L42.8 14.9C45.1 12.7 46.2001 11.5 46.2001 10.2C46.2001 9.30002 45.8001 8.40002 44.4001 8.40002C43.6001 8.40002 42.9 8.80002 42.5 9.20002L42 8.30002C42.6 7.80002 43.5001 7.40002 44.6001 7.40002C46.6001 7.40002 47.4001 8.70002 47.4001 10C47.4001 11.7 46.2 13 44.3 14.9L43.6001 15.6H47.7001V16.6H41.8V16.6Z" fill="#A6A8AB"/>
<path d="M58.5 16.6V14.1H54.3V13.3L58.3 7.5H59.6001V13.1H60.9001V14.1H59.6001V16.6H58.5ZM58.5 13.1V10.1C58.5 9.6 58.5 9.2 58.5 8.7C58.2 9.2 58.0001 9.6 57.7001 10L55.5 13.1H58.5Z" fill="#A6A8AB"/>
<path d="M146.4 16.6V14.1H142.2V13.3L146.2 7.5H147.5V13.1H148.8V14.1H147.5V16.6H146.4ZM146.4 13.1V10.1C146.4 9.6 146.4 9.2 146.4 8.7C146.1 9.2 145.9 9.6 145.6 10L143.4 13.1H146.4Z" fill="#A6A8AB"/>
<path d="M63.2 16.6V15.8L64.2 14.9C66.5 12.7 67.6 11.5 67.6 10.2C67.6 9.30002 67.1999 8.40002 65.7999 8.40002C64.9999 8.40002 64.3 8.80002 63.9 9.20002L63.4 8.30002C64 7.80002 64.9 7.40002 66 7.40002C68 7.40002 68.7999 8.70002 68.7999 10C68.7999 11.7 67.6 13 65.7 14.9L65 15.6H69.1V16.6H63.2V16.6Z" fill="#A6A8AB"/>
<path d="M76.4 15.2C76.7 15.4 77.6 15.8 78.4 15.8C80 15.8 80.5 14.8 80.4 14C80.4 12.7 79.2 12.2 78.1 12.2H77.4V11.3H78.1C79 11.3 80.1 10.8 80.1 9.80002C80.1 9.10002 79.6 8.40002 78.5 8.40002C77.8 8.40002 77.1 8.70002 76.7 9.00002L76.4 8.10002C76.9 7.80002 77.8 7.40002 78.8 7.40002C80.6 7.40002 81.4 8.50002 81.4 9.60002C81.4 10.5 80.8 11.3 79.7 11.7C80.8 11.9 81.7 12.8 81.7 14C81.7 15.4 80.6 16.7 78.4 16.7C77.4 16.7 76.5 16.4 76 16.1L76.4 15.2Z" fill="#A6A8AB"/>
<path d="M84.2 14.3C84.2 13.2 84.8999 12.3 85.9999 11.9C84.9999 11.4 84.5999 10.6 84.5999 9.9C84.5999 8.5 85.7999 7.5 87.3999 7.5C89.1999 7.5 89.9999 8.6 89.9999 9.7C89.9999 10.5 89.5999 11.3 88.4999 11.8C89.5999 12.2 90.2999 13 90.2999 14.1C90.2999 15.7 88.9 16.7 87.2 16.7C85.4 16.7 84.2 15.6 84.2 14.3ZM89.0999 14.2C89.0999 13.1 88.2999 12.6 87.0999 12.2C85.9999 12.5 85.4999 13.2 85.4999 14.1C85.4999 15 86.1999 15.8 87.2999 15.8C88.3999 15.8 89.0999 15.2 89.0999 14.2ZM85.7 9.7C85.7 10.6 86.3999 11.1 87.3999 11.4C88.1999 11.1 88.7999 10.6 88.7999 9.8C88.7999 9.1 88.3999 8.3 87.2999 8.3C86.2999 8.2 85.7 8.9 85.7 9.7Z" fill="#A6A8AB"/>
<path d="M93.8999 15.7C94.1999 15.7 94.4999 15.7 94.8999 15.7C95.5999 15.6 96.2999 15.3 96.7999 14.8C97.3999 14.3 97.8 13.5 98 12.4C97.5 13 96.7999 13.4 95.8999 13.4C94.2999 13.4 93.2 12.2 93.2 10.6C93.2 8.90002 94.3999 7.40002 96.2999 7.40002C98.1999 7.40002 99.3 8.90002 99.3 11.2C99.3 13.2 98.6 14.6 97.7 15.4C97 16.1 96 16.5 95.1 16.6C94.7 16.7 94.3 16.7 94 16.7V15.7H93.8999ZM94.2999 10.5C94.2999 11.6 95 12.4 96 12.4C96.8 12.4 97.4999 12 97.7999 11.5C97.8999 11.4 97.8999 11.2 97.8999 11.1C97.8999 9.60002 97.3 8.40002 96 8.40002C95.1 8.30002 94.2999 9.20002 94.2999 10.5Z" fill="#A6A8AB"/>
<path d="M130.3 11.9C130.3 15 129.2 16.7 127.2 16.7C125.4 16.7 124.2 15 124.2 12C124.2 9.00005 125.5 7.30005 127.3 7.30005C129.2 7.40005 130.3 9.10005 130.3 11.9ZM125.4 12.1C125.4 14.5 126.1 15.8 127.2 15.8C128.5 15.8 129.1 14.3 129.1 12C129.1 9.80005 128.5 8.30005 127.3 8.30005C126.2 8.30005 125.4 9.60005 125.4 12.1Z" fill="#A6A8AB"/>
<path d="M139.3 11.9C139.3 15 138.2 16.7 136.2 16.7C134.4 16.7 133.2 15 133.2 12C133.2 9.00005 134.5 7.30005 136.3 7.30005C138.2 7.40005 139.3 9.10005 139.3 11.9ZM134.4 12.1C134.4 14.5 135.1 15.8 136.2 15.8C137.5 15.8 138.1 14.3 138.1 12C138.1 9.80005 137.5 8.30005 136.3 8.30005C135.2 8.30005 134.4 9.60005 134.4 12.1Z" fill="#A6A8AB"/>
<path d="M112.3 11.9C112.3 15 111.2 16.7 109.2 16.7C107.4 16.7 106.2 15 106.2 12C106.2 9.00005 107.5 7.30005 109.3 7.30005C111.2 7.40005 112.3 9.10005 112.3 11.9ZM107.4 12.1C107.4 14.5 108.1 15.8 109.2 15.8C110.5 15.8 111.1 14.3 111.1 12C111.1 9.80005 110.5 8.30005 109.3 8.30005C108.2 8.30005 107.4 9.60005 107.4 12.1Z" fill="#A6A8AB"/>
<path d="M121.3 11.9C121.3 15 120.2 16.7 118.2 16.7C116.4 16.7 115.2 15 115.2 12C115.2 9.00005 116.5 7.30005 118.3 7.30005C120.2 7.40005 121.3 9.10005 121.3 11.9ZM116.4 12.1C116.4 14.5 117.1 15.8 118.2 15.8C119.5 15.8 120.1 14.3 120.1 12C120.1 9.80005 119.5 8.30005 118.3 8.30005C117.2 8.30005 116.4 9.60005 116.4 12.1Z" fill="#A6A8AB"/>
</svg>